# xmcd CD database file
#
# Track frame offsets:
#	150
#	18150
#	32567
#	43137
#	50857
#	64957
#	80497
#	100270
#	108610
#	122857
#	132917
#	144020
#
# Disc length: 2113 seconds
#
# Revision: 4
# Processed by: cddbd v1.5.1PL2 Copyright (c) Steve Scherf et al.
# Submitted via: CDex 1.51
#
DISCID=a7083f0c
DTITLE=Marty Robbins - Gunfighter Ballads and Trail Songs
DYEAR=1959
DGENRE=Country
TTITLE0=Big Iron
TTITLE1=Cool Water
TTITLE2=Billy the Kid
TTITLE3=A Hundred and Sixty Acres
TTITLE4=They're Hanging Me Tonight
TTITLE5=The Strawberry Roan
TTITLE6=El Paso
TTITLE7=In the Valley
TTITLE8=The Master's Call
TTITLE9=Running Gun
TTITLE10=Little Green Valley
TTITLE11=Utah Carol
EXTD=YEAR: 1959
EXTT0=
EXTT1=
EXTT2=
EXTT3=
EXTT4=
EXTT5=
EXTT6=
EXTT7=
EXTT8=
EXTT9=
EXTT10=
EXTT11=
PLAYORDER=
